<?xml version="1.0" standalone="no"?>
<!DOCTYPE svg PUBLIC "-//W3C//DTD SVG 20010904//EN"
 "http://www.w3.org/TR/2001/REC-SVG-20010904/DTD/svg10.dtd">
<svg version="1.0" xmlns="http://www.w3.org/2000/svg"
 width="1024.000000pt" height="1024.000000pt" viewBox="0 0 1024.000000 1024.000000"
 preserveAspectRatio="xMidYMid meet">
<metadata>
Created by potrace 1.16, written by Peter Selinger 2001-2019
</metadata>
<g transform="translate(0.000000,1024.000000) scale(0.100000,-0.100000)"
fill="#000000" stroke="none">
<path d="M4910 7794 c-91 -12 -257 -47 -327 -70 -116 -39 -271 -115 -375 -185
-119 -80 -313 -274 -389 -389 -280 -421 -332 -920 -145 -1382 43 -106 123
-250 177 -319 16 -20 29 -41 29 -46 0 -4 -138 -145 -306 -313 -168 -168 -314
-322 -325 -342 -10 -21 -19 -50 -19 -65 0 -39 39 -112 72 -137 37 -26 125 -33
164 -13 16 9 171 155 344 325 308 303 315 310 335 292 34 -30 163 -109 243
-149 99 -50 233 -97 347 -123 115 -25 401 -36 513 -19 356 56 653 211 887 463
494 536 527 1327 80 1908 -59 77 -197 211 -288 278 -162 122 -399 223 -611
263 -106 20 -330 32 -406 23z m300 -338 c348 -53 644 -250 827 -552 118 -194
177 -462 153 -688 -45 -411 -262 -743 -610 -934 -199 -109 -479 -156 -697
-118 -442 78 -778 350 -930 755 -102 270 -87 613 37 878 218 465 717 734 1220
659z"/>
<path d="M2000 4166 c-121 -26 -224 -105 -277 -213 -26 -53 -28 -67 -28 -168
0 -101 2 -115 29 -170 78 -158 257 -249 426 -217 77 14 173 58 223 103 l38 34
-59 58 -58 58 -39 -31 c-157 -125 -366 -29 -365 167 1 132 86 223 210 223 62
0 104 -17 155 -61 l38 -34 53 60 c30 33 54 65 54 72 0 30 -118 96 -212 118
-74 17 -113 18 -188 1z"/>
<path d="M3074 4165 c-125 -27 -230 -109 -280 -218 -25 -55 -29 -73 -29 -162
0 -88 3 -107 27 -157 99 -211 367 -299 582 -191 74 38 149 114 182 186 26 56
29 72 29 167 0 96 -2 110 -29 162 -56 110 -157 187 -283 213 -82 18 -119 18
-199 0z m195 -174 c130 -67 162 -246 65 -360 -44 -51 -89 -71 -160 -71 -161 0
-262 172 -190 326 23 51 68 94 116 113 43 17 128 13 169 -8z"/>
<path d="M4281 4169 c-120 -23 -236 -111 -289 -218 -25 -51 -27 -66 -27 -166
1 -133 17 -177 100 -264 203 -213 570 -156 693 107 24 50 27 69 27 157 0 88
-3 107 -27 157 -54 116 -157 196 -285 223 -75 16 -126 17 -192 4z m177 -174
c84 -36 126 -106 126 -210 1 -136 -82 -225 -209 -225 -125 0 -215 95 -215 225
0 95 45 169 125 206 49 23 123 24 173 4z"/>
<path d="M5210 3785 l0 -385 95 0 95 0 0 93 0 94 53 58 52 58 100 -151 100
-152 119 0 c116 0 118 0 105 20 -8 11 -76 112 -153 225 l-138 206 19 22 c34
40 206 231 237 265 l30 32 -115 0 -114 0 -145 -165 -145 -164 -3 164 -2 165
-95 0 -95 0 0 -385z"/>
<path d="M6330 3907 c0 -315 4 -333 89 -417 76 -74 133 -95 266 -95 89 0 107
3 160 28 73 34 118 76 153 142 l27 50 3 278 3 277 -95 0 -94 0 -4 -252 c-3
-281 -7 -300 -71 -338 -44 -27 -131 -27 -175 0 -64 39 -72 74 -72 348 l0 242
-95 0 -95 0 0 -263z"/>
<path d="M7488 3798 c-2 -205 -1 -379 1 -385 2 -9 30 -13 97 -13 l94 0 0 109
0 109 128 4 c139 6 177 16 237 70 61 53 79 99 79 203 1 117 -23 171 -98 221
-69 45 -124 54 -347 54 l-189 0 -2 -372z m410 195 c15 -11 33 -37 41 -58 13
-32 13 -43 0 -78 -23 -65 -54 -81 -165 -85 l-94 -4 0 119 c0 66 3 123 8 127 4
5 46 6 95 4 68 -3 93 -9 115 -25z"/>
<path d="M1617 3094 c-4 -4 -7 -56 -7 -116 l0 -108 85 0 c69 0 85 3 85 15 0
12 -14 15 -66 15 l-65 0 3 33 c3 31 4 32 56 35 37 2 52 7 52 18 0 10 -14 14
-55 14 -54 0 -55 0 -55 30 0 29 1 29 63 32 47 2 62 7 62 18 0 12 -16 16 -75
18 -42 1 -79 0 -83 -4z"/>
<path d="M1907 3093 c-4 -3 -7 -55 -7 -115 0 -101 1 -108 20 -108 17 0 19 8
22 78 l3 77 59 -77 c36 -49 65 -78 77 -78 18 0 19 9 19 116 0 105 -2 115 -17
112 -15 -3 -18 -16 -21 -82 l-3 -79 -60 82 c-55 75 -75 91 -92 74z"/>
<path d="M2305 3092 c-54 -18 -85 -60 -85 -115 0 -56 52 -107 109 -107 45 0
91 17 91 35 0 22 -12 24 -42 9 -82 -43 -161 63 -94 125 25 23 29 24 110 9 35
-6 29 22 -8 37 -38 16 -49 17 -81 7z"/>
<path d="M2595 3086 c-65 -29 -89 -95 -58 -156 22 -42 54 -60 110 -60 77 0
133 77 109 149 -21 63 -99 96 -161 67z m103 -46 c15 -15 22 -33 22 -60 0 -86
-117 -110 -150 -30 -33 79 65 148 128 90z"/>
<path d="M2887 3093 c-4 -3 -7 -55 -7 -115 0 -101 1 -108 20 -108 17 0 19 8
22 78 l3 77 59 -77 c36 -49 65 -78 77 -78 18 0 19 9 19 116 0 105 -2 115 -17
112 -15 -3 -18 -16 -21 -82 l-3 -78 -60 81 c-57 76 -76 91 -92 74z"/>
<path d="M3488 3094 c-5 -4 -8 -56 -8 -116 0 -101 1 -108 20 -108 16 0 20 7
20 35 0 32 2 35 30 35 23 0 35 -8 52 -35 15 -23 31 -35 46 -35 l23 0 -25 36
-25 37 22 17 c28 23 29 83 0 111 -15 16 -38 22 -84 26 -35 3 -67 2 -71 -3z"/>
<path d="M3797 3094 c-4 -4 -7 -56 -7 -116 l0 -108 85 0 c68 0 85 3 85 15 0
10 -16 15 -62 17 -63 3 -63 3 -63 33 0 30 1 30 53 30 43 0 52 3 52 18 0 14 -9
17 -55 17 -54 0 -55 0 -55 30 0 29 1 29 63 32 47 2 62 7 62 18 0 12 -16 16
-75 18 -42 1 -79 0 -83 -4z"/>
<path d="M4302 3089 c-41 -12 -72 -61 -72 -112 0 -31 7 -46 34 -73 30 -30 40
-34 86 -34 43 0 56 5 80 28 91 92 -1 229 -128 191z m103 -54 c33 -33 32 -70
-4 -106 -35 -34 -68 -37 -105 -8 -19 15 -26 29 -26 57 0 75 83 110 135 57z"/>
<path d="M4590 2986 c0 -94 3 -116 14 -116 9 0 16 12 18 33 3 31 5 32 55 37
59 6 80 21 89 66 4 24 0 37 -18 58 -20 24 -33 29 -91 33 l-67 6 0 -117z"/>
<path d="M4933 3086 c-59 -27 -85 -93 -58 -151 34 -70 128 -88 188 -35 41 36
52 78 33 125 -26 60 -101 89 -163 61z m96 -36 c31 -16 45 -64 29 -96 -30 -63
-99 -69 -141 -12 -49 65 37 149 112 108z"/>
<path d="M5228 3094 c-5 -4 -8 -56 -8 -116 0 -101 1 -108 20 -108 16 0 20 7
20 35 0 32 2 35 30 35 23 0 35 -8 52 -35 15 -23 31 -35 46 -35 l23 0 -25 36
c-24 36 -24 37 -5 53 31 26 35 73 7 105 -20 24 -33 29 -88 33 -36 3 -68 2 -72
-3z"/>
<path d="M5800 3010 c0 -83 2 -93 25 -115 18 -19 35 -25 70 -25 35 0 52 6 70
25 23 22 25 32 25 115 0 70 -3 90 -14 90 -10 0 -15 -22 -18 -86 -5 -92 -17
-114 -63 -114 -47 0 -60 22 -64 114 -2 65 -6 86 -17 86 -11 0 -14 -20 -14 -90z"/>
<path d="M6130 2986 c0 -96 3 -116 15 -116 12 0 15 15 15 75 0 41 3 75 8 75 4
0 32 -34 61 -75 33 -46 62 -75 73 -75 16 0 18 11 18 115 0 94 -3 115 -15 115
-11 0 -15 -18 -17 -82 l-3 -83 -61 80 c-87 115 -94 113 -94 -29z"/>
<path d="M6640 2985 l0 -115 63 0 c80 0 121 23 138 79 25 82 -43 151 -148 151
l-53 0 0 -115z m137 60 c46 -32 36 -113 -17 -135 -15 -6 -41 -10 -56 -8 -29 3
-29 3 -32 81 l-3 77 43 0 c24 0 53 -7 65 -15z"/>
<path d="M6996 3008 c-59 -128 -62 -138 -38 -138 13 0 22 9 26 25 6 23 11 25
66 25 55 0 62 -2 72 -25 10 -22 49 -37 47 -17 0 4 -22 54 -48 112 -30 67 -53
106 -64 108 -13 3 -28 -18 -61 -90z"/>
<path d="M7280 2985 l0 -115 71 0 c68 0 73 2 106 35 33 33 35 39 31 85 -3 28
-13 59 -23 70 -22 25 -75 40 -137 40 l-48 0 0 -115z m147 53 c16 -15 23 -33
23 -59 0 -48 -36 -79 -91 -79 l-39 0 0 80 0 80 42 0 c29 0 49 -7 65 -22z"/>
<path d="M7610 2985 l0 -115 85 0 c69 0 85 3 85 15 0 12 -14 15 -66 15 l-65 0
3 33 c2 17 9 33 16 33 6 1 30 2 52 3 28 1 40 5 40 16 0 12 -13 15 -55 15 -54
0 -55 0 -55 30 l0 30 60 0 c53 0 60 2 60 20 0 18 -7 20 -80 20 l-80 0 0 -115z"/>
<path d="M7932 3090 c-12 -5 -27 -21 -33 -34 -17 -35 9 -70 63 -88 30 -10 44
-21 46 -35 4 -30 -28 -37 -74 -18 -49 20 -71 4 -35 -26 37 -30 117 -23 144 12
29 40 15 66 -50 95 -40 18 -54 29 -51 42 4 21 48 28 78 12 16 -9 22 -8 26 5 4
9 3 20 -2 25 -14 14 -87 21 -112 10z"/>
<path d="M2330 2545 c0 -108 1 -115 20 -115 16 0 20 7 20 35 0 35 0 35 44 35
61 0 96 29 96 80 0 57 -34 80 -116 80 l-64 0 0 -115z"/>
<path d="M2630 2545 l0 -115 84 0 c75 0 84 2 82 18 -2 14 -15 18 -64 20 -61 3
-62 3 -62 32 0 30 1 30 55 30 42 0 55 3 55 15 0 12 -13 15 -55 15 l-55 0 0 33
0 33 60 -2 c52 -1 60 1 60 17 0 17 -9 19 -80 19 l-80 0 0 -115z"/>
<path d="M2920 2545 c0 -108 1 -115 20 -115 16 0 20 7 20 35 0 32 2 35 30 35
24 0 35 -7 51 -35 12 -20 29 -35 40 -35 24 0 24 5 -2 42 l-21 29 21 23 c31 33
28 89 -5 115 -21 16 -41 21 -90 21 l-64 0 0 -115z"/>
<path d="M3230 2545 c0 -108 1 -115 20 -115 17 0 20 7 20 50 l0 50 50 0 c38 0
50 4 50 15 0 11 -12 15 -50 15 -49 0 -50 1 -50 29 0 29 2 30 52 33 41 2 54 7
56 21 3 15 -6 17 -72 17 l-76 0 0 -115z"/>
<path d="M3500 2545 l0 -115 80 0 c73 0 80 2 80 20 0 18 -7 20 -66 20 l-65 0
3 28 c3 25 7 27 57 32 76 7 79 28 4 32 -57 3 -58 3 -58 33 0 27 3 30 30 27 46
-5 95 7 95 23 0 12 -17 15 -80 15 l-80 0 0 -115z"/>
<path d="M4253 2561 c-60 -140 -58 -131 -34 -131 14 0 23 8 27 25 6 23 10 25
69 25 59 0 63 -2 69 -25 4 -16 13 -25 26 -25 11 0 20 3 20 8 0 4 -21 55 -47
115 -62 142 -72 143 -130 8z"/>
<path d="M4554 2635 c-19 -19 -23 -31 -18 -48 9 -31 15 -36 70 -55 36 -13 49
-23 49 -37 0 -17 -7 -20 -40 -19 -22 1 -50 5 -62 9 -19 6 -23 4 -23 -13 0 -41
100 -56 144 -21 49 39 30 86 -46 114 -36 13 -48 23 -48 38 0 18 5 19 54 14 61
-6 83 12 40 32 -43 19 -92 14 -120 -14z"/>
<path d="M4980 2545 c0 -108 1 -115 20 -115 16 0 20 7 20 35 0 35 0 35 44 35
61 0 96 29 96 80 0 57 -34 80 -116 80 l-64 0 0 -115z"/>
<path d="M5328 2613 c-11 -27 -34 -77 -49 -112 -16 -35 -29 -65 -29 -67 0 -2
8 -4 18 -4 11 0 24 11 30 25 10 23 17 25 70 25 53 0 60 -2 70 -25 7 -15 20
-25 32 -25 22 0 25 -11 -57 172 -33 75 -56 77 -85 11z"/>
<path d="M5600 2546 c0 -96 3 -116 15 -116 10 0 15 11 15 35 0 33 2 35 34 35
28 0 38 -6 56 -35 13 -20 30 -35 41 -35 24 0 24 4 -2 40 l-22 28 22 28 c26 33
27 74 2 105 -16 19 -30 24 -90 27 l-71 4 0 -116z"/>
<path d="M5977 2653 c-7 -12 -97 -215 -97 -219 0 -2 8 -4 18 -4 11 0 24 11 30
25 10 23 17 25 70 25 53 0 60 -2 70 -25 11 -24 42 -35 42 -15 0 5 -21 57 -46
115 -35 77 -52 105 -65 105 -10 0 -20 -3 -22 -7z"/>
<path d="M6365 2641 c3 -11 23 -62 44 -113 53 -131 66 -131 120 4 45 114 49
131 25 126 -11 -2 -29 -34 -48 -85 -30 -78 -46 -108 -46 -86 0 6 -14 48 -31
92 -24 64 -35 81 -51 81 -15 0 -18 -5 -13 -19z"/>
<path d="M6728 2644 c-76 -41 -74 -159 2 -199 81 -42 180 13 180 100 0 88
-102 143 -182 99z m120 -47 c50 -46 12 -127 -59 -127 -46 0 -79 30 -79 71 0
42 10 60 44 75 36 15 62 10 94 -19z"/>
<path d="M7060 2638 c-98 -66 -40 -218 79 -205 50 6 82 30 63 49 -9 9 -15 9
-24 0 -19 -19 -82 -14 -106 8 -23 22 -29 68 -12 100 16 30 68 43 103 25 21
-10 34 -12 41 -5 17 17 -18 42 -65 47 -35 4 -51 0 -79 -19z"/>
<path d="M7330 2545 l0 -115 86 0 c76 0 85 2 82 18 -3 14 -16 18 -66 20 -61 3
-62 3 -62 32 0 30 1 30 55 30 42 0 55 3 55 15 0 12 -13 15 -56 15 l-55 0 3 33
3 32 58 -3 c52 -3 57 -1 57 17 0 19 -6 21 -80 21 l-80 0 0 -115z"/>
</g>
</svg>
